<?xml version="1.0" encoding="UTF-8"?>
<svg id="Capa_1" data-name="Capa 1" xmlns="http://www.w3.org/2000/svg" xmlns:xlink="http://www.w3.org/1999/xlink" viewBox="0 0 211 211">
  <defs>
    <style>
      .cls-1 {
        fill: none;
      }

      .cls-2 {
        clip-path: url(#clippath);
      }

      .cls-3 {
        fill: #ffd953;
      }

      .cls-4 {
        fill: #4caf50;
      }
    </style>
    <clipPath id="clippath">
      <rect class="cls-1" width="211" height="211"/>
    </clipPath>
  </defs>
  <g class="cls-2">
    <g>
      <path class="cls-4" d="M211,24.18c0-13.34-10.84-24.18-24.18-24.18H24.18C10.84,0,0,10.84,0,24.18V186.82c0,13.34,10.84,24.18,24.18,24.18H186.82c13.34,0,24.18-10.84,24.18-24.18V24.18Z"/>
      <path class="cls-3" d="M101.1,140.67c-1.69,0-3.38-.64-4.66-1.93l-28.57-28.57c-2.58-2.58-2.58-6.75,0-9.33,2.58-2.58,6.75-2.58,9.33,0l23.91,23.91,43.69-43.69c2.58-2.58,6.75-2.58,9.33,0,2.58,2.58,2.58,6.75,0,9.33l-48.35,48.35c-1.3,1.29-2.99,1.93-4.68,1.93Z"/>
      <path class="cls-3" d="M186.82,211H24.18c-13.34,0-24.18-10.84-24.18-24.18V24.18C0,10.84,10.84,0,24.18,0H186.82c13.34,0,24.18,10.84,24.18,24.18V186.82c0,13.34-10.84,24.18-24.18,24.18ZM24.18,13.19c-6.06,0-10.99,4.93-10.99,10.99V186.82c0,6.06,4.93,10.99,10.99,10.99H186.82c6.06,0,10.99-4.93,10.99-10.99V24.18c0-6.06-4.93-10.99-10.99-10.99H24.18Z"/>
    </g>
  </g>
</svg>